<svg xmlns="http://www.w3.org/2000/svg" width="1200" height="630" viewBox="0 0 1200 630">
  <defs>
    <linearGradient id="bg" x1="0" y1="0" x2="1" y2="1">
      <stop offset="0" stop-color="#0f1626"/><stop offset="1" stop-color="#1b2748"/>
    </linearGradient>
    <linearGradient id="accgrad" x1="0" y1="1" x2="1" y2="0">
      <stop offset="0" stop-color="#7aa2ff"/><stop offset="1" stop-color="#9a7bff"/>
    </linearGradient>
    <radialGradient id="glowA" cx="0.5" cy="0.5" r="0.5">
      <stop offset="0" stop-color="#7aa2ff" stop-opacity="0.45"/><stop offset="1" stop-color="#7aa2ff" stop-opacity="0"/>
    </radialGradient>
    <radialGradient id="glowB" cx="0.5" cy="0.5" r="0.5">
      <stop offset="0" stop-color="#9a7bff" stop-opacity="0.35"/><stop offset="1" stop-color="#9a7bff" stop-opacity="0"/>
    </radialGradient>
  </defs>
  <rect width="1200" height="630" fill="url(#bg)"/>
  <line x1="48" y1="0" x2="48" y2="630" stroke="#9fb0cc" stroke-opacity="0.035" stroke-width="1"/><line x1="96" y1="0" x2="96" y2="630" stroke="#9fb0cc" stroke-opacity="0.035" stroke-width="1"/><line x1="144" y1="0" x2="144" y2="630" stroke="#9fb0cc" stroke-opacity="0.035" stroke-width="1"/><line x1="192" y1="0" x2="192" y2="630" stroke="#9fb0cc" stroke-opacity="0.035" stroke-width="1"/><line x1="240" y1="0" x2="240" y2="630" stroke="#9fb0cc" stroke-opacity="0.035" stroke-width="1"/><line x1="288" y1="0" x2="288" y2="630" stroke="#9fb0cc" stroke-opacity="0.035" stroke-width="1"/><line x1="336" y1="0" x2="336" y2="630" stroke="#9fb0cc" stroke-opacity="0.035" stroke-width="1"/><line x1="384" y1="0" x2="384" y2="630" stroke="#9fb0cc" stroke-opacity="0.035" stroke-width="1"/><line x1="432" y1="0" x2="432" y2="630" stroke="#9fb0cc" stroke-opacity="0.035" stroke-width="1"/><line x1="480" y1="0" x2="480" y2="630" stroke="#9fb0cc" stroke-opacity="0.035" stroke-width="1"/><line x1="528" y1="0" x2="528" y2="630" stroke="#9fb0cc" stroke-opacity="0.035" stroke-width="1"/><line x1="576" y1="0" x2="576" y2="630" stroke="#9fb0cc" stroke-opacity="0.035" stroke-width="1"/><line x1="624" y1="0" x2="624" y2="630" stroke="#9fb0cc" stroke-opacity="0.035" stroke-width="1"/><line x1="672" y1="0" x2="672" y2="630" stroke="#9fb0cc" stroke-opacity="0.035" stroke-width="1"/><line x1="720" y1="0" x2="720" y2="630" stroke="#9fb0cc" stroke-opacity="0.035" stroke-width="1"/><line x1="768" y1="0" x2="768" y2="630" stroke="#9fb0cc" stroke-opacity="0.035" stroke-width="1"/><line x1="816" y1="0" x2="816" y2="630" stroke="#9fb0cc" stroke-opacity="0.035" stroke-width="1"/><line x1="864" y1="0" x2="864" y2="630" stroke="#9fb0cc" stroke-opacity="0.035" stroke-width="1"/><line x1="912" y1="0" x2="912" y2="630" stroke="#9fb0cc" stroke-opacity="0.035" stroke-width="1"/><line x1="960" y1="0" x2="960" y2="630" stroke="#9fb0cc" stroke-opacity="0.035" stroke-width="1"/><line x1="1008" y1="0" x2="1008" y2="630" stroke="#9fb0cc" stroke-opacity="0.035" stroke-width="1"/><line x1="1056" y1="0" x2="1056" y2="630" stroke="#9fb0cc" stroke-opacity="0.035" stroke-width="1"/><line x1="1104" y1="0" x2="1104" y2="630" stroke="#9fb0cc" stroke-opacity="0.035" stroke-width="1"/><line x1="1152" y1="0" x2="1152" y2="630" stroke="#9fb0cc" stroke-opacity="0.035" stroke-width="1"/><line x1="0" y1="48" x2="1200" y2="48" stroke="#9fb0cc" stroke-opacity="0.035" stroke-width="1"/><line x1="0" y1="96" x2="1200" y2="96" stroke="#9fb0cc" stroke-opacity="0.035" stroke-width="1"/><line x1="0" y1="144" x2="1200" y2="144" stroke="#9fb0cc" stroke-opacity="0.035" stroke-width="1"/><line x1="0" y1="192" x2="1200" y2="192" stroke="#9fb0cc" stroke-opacity="0.035" stroke-width="1"/><line x1="0" y1="240" x2="1200" y2="240" stroke="#9fb0cc" stroke-opacity="0.035" stroke-width="1"/><line x1="0" y1="288" x2="1200" y2="288" stroke="#9fb0cc" stroke-opacity="0.035" stroke-width="1"/><line x1="0" y1="336" x2="1200" y2="336" stroke="#9fb0cc" stroke-opacity="0.035" stroke-width="1"/><line x1="0" y1="384" x2="1200" y2="384" stroke="#9fb0cc" stroke-opacity="0.035" stroke-width="1"/><line x1="0" y1="432" x2="1200" y2="432" stroke="#9fb0cc" stroke-opacity="0.035" stroke-width="1"/><line x1="0" y1="480" x2="1200" y2="480" stroke="#9fb0cc" stroke-opacity="0.035" stroke-width="1"/><line x1="0" y1="528" x2="1200" y2="528" stroke="#9fb0cc" stroke-opacity="0.035" stroke-width="1"/><line x1="0" y1="576" x2="1200" y2="576" stroke="#9fb0cc" stroke-opacity="0.035" stroke-width="1"/><line x1="0" y1="624" x2="1200" y2="624" stroke="#9fb0cc" stroke-opacity="0.035" stroke-width="1"/>
  <text x="948" y="486" text-anchor="middle" font-family="'SF Mono', 'Menlo', 'DejaVu Sans Mono', 'Liberation Mono', monospace" font-size="330" font-weight="700" fill="#7aa2ff" fill-opacity="0.05">&lt;/&gt;</text>
  <circle cx="1040" cy="150" r="420" fill="url(#glowA)"/>
  <circle cx="90" cy="120" r="320" fill="url(#glowB)"/>
  <path d="M 726.0 70.0 L 775.8 79.1 L 825.5 84.0 L 875.3 67.4 L 925.0 49.0 L 974.8 60.4 L 1024.5 75.5 L 1074.3 80.7 L 1124.0 84.8" fill="none" stroke="#7aa2ff" stroke-opacity="0.20" stroke-width="2"/><path d="M 726.0 107.5 L 775.8 128.2 L 825.5 109.7 L 875.3 92.7 L 925.0 88.5 L 974.8 107.9 L 1024.5 118.8 L 1074.3 123.1 L 1124.0 104.2" fill="none" stroke="#9a7bff" stroke-opacity="0.20" stroke-width="2"/><path d="M 726.0 145.0 L 775.8 151.8 L 825.5 135.2 L 875.3 130.0 L 925.0 141.2 L 974.8 162.0 L 1024.5 161.2 L 1074.3 146.4 L 1124.0 133.3" fill="none" stroke="#7aa2ff" stroke-opacity="0.20" stroke-width="2"/><path d="M 726.0 182.5 L 775.8 173.9 L 825.5 165.4 L 875.3 172.9 L 925.0 191.3 L 974.8 194.7 L 1024.5 189.3 L 1074.3 169.3 L 1124.0 164.9" fill="none" stroke="#9a7bff" stroke-opacity="0.20" stroke-width="2"/><path d="M 726.0 220.0 L 775.8 210.6 L 825.5 210.7 L 875.3 224.1 L 925.0 243.2 L 974.8 235.0 L 1024.5 212.6 L 1074.3 209.2 L 1124.0 210.1" fill="none" stroke="#7aa2ff" stroke-opacity="0.20" stroke-width="2"/><path d="M 726.0 257.5 L 775.8 246.2 L 825.5 256.1 L 875.3 267.2 L 925.0 276.4 L 974.8 255.6 L 1024.5 243.4 L 1074.3 249.8 L 1124.0 261.7" fill="none" stroke="#9a7bff" stroke-opacity="0.20" stroke-width="2"/><path d="M 726.0 295.0 L 775.8 288.5 L 825.5 308.4 L 875.3 318.6 L 925.0 300.1 L 974.8 284.2 L 1024.5 275.4 L 1074.3 293.6 L 1124.0 305.9" fill="none" stroke="#7aa2ff" stroke-opacity="0.20" stroke-width="2"/><path d="M 726.0 332.5 L 775.8 339.9 L 825.5 349.2 L 875.3 339.0 L 925.0 322.5 L 974.8 320.2 L 1024.5 323.4 L 1074.3 347.7 L 1124.0 346.8" fill="none" stroke="#9a7bff" stroke-opacity="0.20" stroke-width="2"/><path d="M 726.0 370.0 L 775.8 392.3 L 825.5 382.9 L 875.3 366.0 L 925.0 357.2 L 974.8 354.0 L 1024.5 379.0 L 1074.3 383.4 L 1124.0 381.7" fill="none" stroke="#7aa2ff" stroke-opacity="0.20" stroke-width="2"/>
  <rect x="80" y="74" width="201" height="40" rx="20" fill="#7aa2ff" fill-opacity="0.12" stroke="#7aa2ff" stroke-opacity="0.5"/><circle cx="102" cy="94" r="5" fill="#7aa2ff"/><text x="120" y="101" font-family="'Helvetica Neue', Helvetica, Arial, 'Liberation Sans', sans-serif" font-size="22" font-weight="700" letter-spacing="2.5" fill="#7aa2ff">DATA HOW-TO</text>
  <text x="82.0" y="382.3" font-family="'Helvetica Neue', Helvetica, Arial, 'Liberation Sans', sans-serif" font-size="58" font-weight="800" fill="#000" fill-opacity="0.28" letter-spacing="-1">EU Public Tenders</text><text x="80" y="380.30000000000007" font-family="'Helvetica Neue', Helvetica, Arial, 'Liberation Sans', sans-serif" font-size="58" font-weight="800" letter-spacing="-1"><tspan fill="#f4f6fb">EU</tspan> <tspan fill="url(#accgrad)">Public</tspan> <tspan fill="#f4f6fb">Tenders</tspan></text><text x="82.0" y="449.0" font-family="'Helvetica Neue', Helvetica, Arial, 'Liberation Sans', sans-serif" font-size="58" font-weight="800" fill="#000" fill-opacity="0.28" letter-spacing="-1">Have a Free JSON</text><text x="80" y="447.00000000000006" font-family="'Helvetica Neue', Helvetica, Arial, 'Liberation Sans', sans-serif" font-size="58" font-weight="800" letter-spacing="-1"><tspan fill="#f4f6fb">Have</tspan> <tspan fill="#f4f6fb">a</tspan> <tspan fill="url(#accgrad)">Free</tspan> <tspan fill="url(#accgrad)">JSON</tspan></text><text x="82.0" y="515.7" font-family="'Helvetica Neue', Helvetica, Arial, 'Liberation Sans', sans-serif" font-size="58" font-weight="800" fill="#000" fill-opacity="0.28" letter-spacing="-1">API</text><text x="80" y="513.7" font-family="'Helvetica Neue', Helvetica, Arial, 'Liberation Sans', sans-serif" font-size="58" font-weight="800" letter-spacing="-1"><tspan fill="url(#accgrad)">API</tspan></text>
  <rect x="80" y="539.7" width="132" height="5" rx="2.5" fill="url(#accgrad)"/>
  <circle cx="87" cy="576" r="5" fill="#7aa2ff"/><text x="104" y="584" font-family="'Helvetica Neue', Helvetica, Arial, 'Liberation Sans', sans-serif" font-size="23" font-weight="600" fill="#9fb0cc">keyless · api.ted.europa.eu</text>
  <rect x="1104" y="74" width="46" height="46" rx="12" fill="none" stroke="#7aa2ff" stroke-opacity="0.6" stroke-width="2"/><circle cx="1119" cy="105" r="4" fill="#7aa2ff"/><circle cx="1135" cy="89" r="4" fill="#9a7bff"/><line x1="1119" y1="105" x2="1135" y2="89" stroke="#7aa2ff" stroke-opacity="0.7" stroke-width="2"/>
</svg>