<svg xmlns="http://www.w3.org/2000/svg" width="1200" height="630" viewBox="0 0 1200 630">
  <defs>
    <linearGradient id="bg" x1="0" y1="0" x2="1" y2="1">
      <stop offset="0" stop-color="#141a24"/><stop offset="1" stop-color="#1e2a44"/>
    </linearGradient>
  </defs>
  <rect width="1200" height="630" fill="url(#bg)"/>
  <circle cx="900" cy="70" r="3" fill="#7aa2ff" fill-opacity="0.22"/><circle cx="900" cy="104" r="3" fill="#7aa2ff" fill-opacity="0.22"/><circle cx="900" cy="138" r="3" fill="#7aa2ff" fill-opacity="0.22"/><circle cx="900" cy="172" r="3" fill="#7aa2ff" fill-opacity="0.22"/><circle cx="900" cy="206" r="3" fill="#7aa2ff" fill-opacity="0.22"/><circle cx="934" cy="70" r="3" fill="#7aa2ff" fill-opacity="0.22"/><circle cx="934" cy="104" r="3" fill="#7aa2ff" fill-opacity="0.22"/><circle cx="934" cy="138" r="3" fill="#7aa2ff" fill-opacity="0.22"/><circle cx="934" cy="172" r="3" fill="#7aa2ff" fill-opacity="0.22"/><circle cx="934" cy="206" r="3" fill="#7aa2ff" fill-opacity="0.22"/><circle cx="968" cy="70" r="3" fill="#7aa2ff" fill-opacity="0.22"/><circle cx="968" cy="104" r="3" fill="#7aa2ff" fill-opacity="0.22"/><circle cx="968" cy="138" r="3" fill="#7aa2ff" fill-opacity="0.22"/><circle cx="968" cy="172" r="3" fill="#7aa2ff" fill-opacity="0.22"/><circle cx="968" cy="206" r="3" fill="#7aa2ff" fill-opacity="0.22"/><circle cx="1002" cy="70" r="3" fill="#7aa2ff" fill-opacity="0.22"/><circle cx="1002" cy="104" r="3" fill="#7aa2ff" fill-opacity="0.22"/><circle cx="1002" cy="138" r="3" fill="#7aa2ff" fill-opacity="0.22"/><circle cx="1002" cy="172" r="3" fill="#7aa2ff" fill-opacity="0.22"/><circle cx="1002" cy="206" r="3" fill="#7aa2ff" fill-opacity="0.22"/><circle cx="1036" cy="70" r="3" fill="#7aa2ff" fill-opacity="0.22"/><circle cx="1036" cy="104" r="3" fill="#7aa2ff" fill-opacity="0.22"/><circle cx="1036" cy="138" r="3" fill="#7aa2ff" fill-opacity="0.22"/><circle cx="1036" cy="172" r="3" fill="#7aa2ff" fill-opacity="0.22"/><circle cx="1036" cy="206" r="3" fill="#7aa2ff" fill-opacity="0.22"/><circle cx="1070" cy="70" r="3" fill="#7aa2ff" fill-opacity="0.22"/><circle cx="1070" cy="104" r="3" fill="#7aa2ff" fill-opacity="0.22"/><circle cx="1070" cy="138" r="3" fill="#7aa2ff" fill-opacity="0.22"/><circle cx="1070" cy="172" r="3" fill="#7aa2ff" fill-opacity="0.22"/><circle cx="1070" cy="206" r="3" fill="#7aa2ff" fill-opacity="0.22"/><circle cx="1104" cy="70" r="3" fill="#7aa2ff" fill-opacity="0.22"/><circle cx="1104" cy="104" r="3" fill="#7aa2ff" fill-opacity="0.22"/><circle cx="1104" cy="138" r="3" fill="#7aa2ff" fill-opacity="0.22"/><circle cx="1104" cy="172" r="3" fill="#7aa2ff" fill-opacity="0.22"/><circle cx="1104" cy="206" r="3" fill="#7aa2ff" fill-opacity="0.22"/><circle cx="1138" cy="70" r="3" fill="#7aa2ff" fill-opacity="0.22"/><circle cx="1138" cy="104" r="3" fill="#7aa2ff" fill-opacity="0.22"/><circle cx="1138" cy="138" r="3" fill="#7aa2ff" fill-opacity="0.22"/><circle cx="1138" cy="172" r="3" fill="#7aa2ff" fill-opacity="0.22"/><circle cx="1138" cy="206" r="3" fill="#7aa2ff" fill-opacity="0.22"/><circle cx="1172" cy="70" r="3" fill="#7aa2ff" fill-opacity="0.22"/><circle cx="1172" cy="104" r="3" fill="#7aa2ff" fill-opacity="0.22"/><circle cx="1172" cy="138" r="3" fill="#7aa2ff" fill-opacity="0.22"/><circle cx="1172" cy="172" r="3" fill="#7aa2ff" fill-opacity="0.22"/><circle cx="1172" cy="206" r="3" fill="#7aa2ff" fill-opacity="0.22"/>
  <rect x="80" y="70" width="64" height="6" rx="3" fill="#7aa2ff"/>
  <text x="80" y="112" font-family="'Helvetica Neue', Helvetica, Arial, 'Liberation Sans', sans-serif" font-size="26" font-weight="700" letter-spacing="3" fill="#7aa2ff">DATA HOW-TO</text>
  <text x="80" y="440.5" font-family="'Helvetica Neue', Helvetica, Arial, 'Liberation Sans', sans-serif" font-size="74" font-weight="800" fill="#f4f6fb" letter-spacing="-1">EU Public Tenders Have</text><text x="80" y="524.8" font-family="'Helvetica Neue', Helvetica, Arial, 'Liberation Sans', sans-serif" font-size="74" font-weight="800" fill="#f4f6fb" letter-spacing="-1">a Free JSON API</text>
  
  <text x="80" y="584" font-family="'Helvetica Neue', Helvetica, Arial, 'Liberation Sans', sans-serif" font-size="24" font-weight="600" fill="#9fb0cc">keyless · api.ted.europa.eu</text>
</svg>